<svg version="1.1" id="Layer_1" xmlns="http://www.w3.org/2000/svg" xmlns:xlink="http://www.w3.org/1999/xlink" x="0px" y="0px"
	 width="100%" viewBox="0 0 1024 1024" enable-background="new 0 0 1024 1024" xml:space="preserve">
<path fill="#000000" opacity="1.000000" stroke="none" 
	d="
M260.352112,330.664429 
	C251.486542,322.824005 242.968353,315.121429 234.243088,307.661041 
	C231.435013,305.260040 231.219604,303.571747 233.788101,300.804871 
	C240.804291,293.246796 247.518784,285.409668 254.432327,277.754883 
	C257.890594,273.925842 261.493713,270.233948 266.101044,267.702728 
	C280.086426,260.019409 294.682861,267.180878 297.150452,282.968689 
	C297.351105,284.252319 297.477203,285.547546 297.614929,286.652832 
	C299.092712,287.495514 300.142151,286.724365 301.220032,286.436768 
	C309.612732,284.197388 316.608490,286.542175 322.468964,292.789948 
	C328.034912,298.723755 329.055634,305.552948 326.709351,313.146057 
	C324.427246,320.531433 319.542755,326.214691 314.594910,331.842194 
	C307.895905,339.461395 301.011841,346.919312 294.388550,354.602783 
	C291.920959,357.465363 290.037048,357.251465 287.409546,354.854034 
	C278.560242,346.779510 269.561005,338.869324 260.352112,330.664429 
M290.088379,305.581665 
	C284.431427,311.998871 278.774475,318.416077 272.876892,325.106232 
	C279.521271,330.906891 285.565430,336.183563 291.893921,341.708435 
	C298.534332,334.194366 304.741364,327.296295 310.779724,320.253632 
	C312.378510,318.388947 313.686646,316.185760 314.729248,313.951813 
	C317.008698,309.067780 316.044250,304.058472 312.469849,300.670166 
	C308.547974,296.952484 303.564331,296.184784 298.690399,298.562775 
	C295.497681,300.120514 293.005524,302.558624 290.088379,305.581665 
M286.505432,289.156891 
	C286.883911,284.058594 284.348053,280.460541 280.153961,278.195496 
	C275.957855,275.929352 271.663666,276.807770 267.975006,279.591156 
	C259.816650,285.747406 254.013855,294.078918 246.995850,302.109802 
	C253.154922,307.518799 258.932251,312.592560 264.993073,317.915283 
	C269.352234,313.070435 273.201202,308.737457 277.112274,304.461243 
	C281.053711,300.151855 284.963562,295.839966 286.505432,289.156891 
z"/>
<path fill="#000000" opacity="1.000000" stroke="none" 
	d="
M604.911865,763.677246 
	C620.486572,756.859802 634.044373,759.802734 643.274353,771.761108 
	C652.664490,783.927124 653.405518,800.193909 644.235413,811.005981 
	C634.998230,821.897034 623.116455,825.472351 608.768250,820.971741 
	C608.918762,824.887390 610.832397,828.004700 611.932861,831.318665 
	C613.557312,836.210266 615.119202,841.153137 617.208862,845.851318 
	C619.419861,850.822449 615.860962,851.251770 612.810608,852.615784 
	C609.277710,854.195435 607.223816,854.001831 605.726074,849.780701 
	C599.220032,831.444397 592.407532,813.216736 585.691528,794.955078 
	C583.740112,789.648804 581.903687,784.291443 579.707214,779.087158 
	C578.054382,775.171204 579.377319,773.458313 583.124573,772.112305 
	C586.705627,770.826050 589.550537,769.977478 590.708618,774.828064 
	C590.854492,775.439026 591.283997,775.982361 591.864624,777.101807 
	C594.889465,771.158508 598.943420,766.700867 604.911865,763.677246 
M603.221008,777.738708 
	C596.327942,786.922424 596.746094,797.885010 604.316895,806.466797 
	C609.540771,812.388245 618.293335,814.161133 626.292358,810.918091 
	C633.828735,807.862610 639.337158,800.076233 638.499817,792.602112 
	C637.551392,784.136475 634.219421,776.818665 625.868835,773.043823 
	C617.577881,769.295959 610.340881,771.767822 603.221008,777.738708 
z"/>
<path fill="#000000" opacity="1.000000" stroke="none" 
	d="
M724.956665,283.932251 
	C717.748291,293.316406 710.770264,302.428864 703.770996,311.525024 
	C701.734436,314.171661 700.358093,317.974792 695.750305,314.339142 
	C690.419189,310.132812 690.225647,310.323090 694.316711,304.176056 
	C685.198364,304.262360 677.174438,301.903320 670.692932,295.591492 
	C664.192139,289.260956 660.485657,281.684784 660.716736,272.488342 
	C661.083069,257.907837 673.498291,243.717545 687.296997,241.583923 
	C700.383057,239.560501 717.578369,246.314270 722.889465,266.418060 
	C728.288452,259.501160 733.293884,253.001740 738.412476,246.592712 
	C739.663696,245.026138 740.511536,242.051926 743.196533,243.155884 
	C746.069275,244.337021 748.893311,246.172821 750.522949,248.921936 
	C751.501526,250.572754 749.538025,251.897690 748.570435,253.164841 
	C740.796509,263.345764 732.981445,273.495270 724.956665,283.932251 
M690.867737,253.042435 
	C682.180237,254.386292 676.938477,260.014252 673.960938,267.668457 
	C669.468933,279.215790 678.181519,292.768036 690.353638,293.791687 
	C702.034851,294.774048 713.338013,284.577515 713.603455,272.648376 
	C713.825806,262.654510 704.055603,251.580154 690.867737,253.042435 
z"/>
<path fill="#000000" opacity="1.000000" stroke="none" 
	d="
M219.258591,690.566650 
	C220.473770,688.943970 222.016159,688.763733 223.441025,688.353821 
	C228.853210,686.796509 229.316559,687.119202 230.241547,692.595337 
	C231.520920,700.169373 234.796310,706.812683 239.795593,712.614685 
	C241.440018,714.523193 243.395966,716.077209 245.627365,717.253601 
	C249.753967,719.429260 253.907135,719.897278 257.816315,716.880249 
	C261.755432,713.840271 262.489807,709.670410 260.984863,705.204651 
	C258.914307,699.060547 256.459015,693.047058 254.309677,686.928162 
	C253.155121,683.641235 252.088211,680.296082 251.345261,676.897766 
	C249.723083,669.477417 251.582153,663.014709 257.426483,657.979004 
	C263.590271,652.668091 270.733978,651.056213 278.397125,653.726013 
	C292.976105,658.805054 307.178162,680.583801 306.326111,696.053162 
	C306.090332,700.333679 303.526154,701.587463 296.118774,700.848633 
	C295.480469,696.386475 295.297089,691.762329 293.876434,687.325439 
	C291.643097,680.350220 287.939423,674.348999 282.767944,669.217590 
	C282.061584,668.516785 281.291931,667.865967 280.487244,667.280334 
	C275.669678,663.774048 271.023346,663.356079 267.075531,666.162659 
	C262.457214,669.446106 262.551025,674.108215 264.033386,678.739929 
	C266.515961,686.497009 269.570343,694.071289 272.044525,701.830750 
	C275.497345,712.659485 273.141296,721.213928 265.649139,726.483887 
	C256.954376,732.599792 246.725952,732.414246 237.938202,725.319336 
	C227.020035,716.504333 220.218109,705.215576 219.258591,690.566650 
z"/>
<path fill="#000000" opacity="1.000000" stroke="none" 
	d="
M212.553406,442.493347 
	C214.530090,446.655457 216.904358,447.116333 220.700867,445.026459 
	C230.320953,439.730865 240.155914,434.825226 249.914276,429.781677 
	C251.493759,428.965363 252.953339,427.711578 254.928177,428.034790 
	C256.217804,436.758545 254.280106,440.759796 246.977051,444.649109 
	C238.918579,448.940735 230.861023,453.234161 222.568069,457.651978 
	C226.379456,465.972107 230.197922,473.236298 240.741241,473.768036 
	C246.755264,474.071320 248.683807,480.021606 244.968292,484.985931 
	C243.557327,486.871155 241.690796,486.158478 239.947906,485.821747 
	C219.559326,481.882812 199.176147,477.915771 178.791397,473.956940 
	C174.549927,473.133209 170.338882,471.966125 166.057785,471.582550 
	C161.265976,471.153198 160.905518,468.711121 161.759048,464.840149 
	C162.579025,461.121399 163.298065,458.523590 168.401459,459.627350 
	C181.723892,462.508698 195.173050,464.805298 208.576599,467.308807 
	C210.349457,467.639984 212.150803,467.818665 215.130310,468.234009 
	C210.028854,459.823303 205.436752,452.239349 200.829742,444.664429 
	C199.359558,442.247162 198.143723,439.595917 196.302338,437.498749 
	C191.069107,431.538513 193.672546,425.568939 195.936249,417.778168 
	C201.913605,426.665222 207.135193,434.428619 212.553406,442.493347 
z"/>
<path fill="#000000" opacity="1.000000" stroke="none" 
	d="
M473.954071,207.731110 
	C471.336548,210.686295 473.600372,212.186584 475.272888,213.733505 
	C483.581543,221.418289 491.940704,229.048538 500.240479,236.742844 
	C501.539734,237.947311 503.284210,238.857651 503.609009,240.877747 
	C496.671143,244.825974 491.121521,244.241882 485.512543,239.181564 
	C478.620148,232.963394 471.644440,226.837662 464.556793,220.540512 
	C460.398193,224.133469 457.294617,228.108826 454.995941,232.441544 
	C453.126495,235.965271 455.504456,239.881790 455.892426,243.628738 
	C456.207489,246.671585 457.255768,249.549973 452.586487,250.313522 
	C445.538208,251.466080 445.287842,251.621384 444.300171,245.822968 
	C440.118134,221.270874 436.049011,196.699554 431.913422,172.139496 
	C431.372162,168.925232 431.776825,166.644745 435.773224,166.251389 
	C437.910248,166.041061 440.007599,165.470840 442.932678,165.820892 
	C446.564117,182.211929 448.455078,199.148605 451.653076,216.160187 
	C453.973389,215.575546 454.781128,213.819687 455.840759,212.504181 
	C461.895935,204.986664 468.334198,197.718170 473.728729,189.746780 
	C478.118988,183.259369 484.141724,182.396790 491.937134,182.934799 
	C486.009094,191.108566 480.081024,199.282318 473.954071,207.731110 
z"/>
<path fill="#000000" opacity="1.000000" stroke="none" 
	d="
M740.958130,680.702637 
	C757.260620,684.966553 767.565613,697.617981 767.320251,712.596924 
	C767.127563,724.355957 758.722656,736.418396 747.374512,740.795715 
	C735.312744,745.448242 724.903015,741.943542 715.469788,733.940369 
	C712.802551,731.677429 713.595825,729.933472 715.603882,727.728271 
	C724.238831,718.245972 732.763550,708.662964 741.293518,699.085571 
	C742.372375,697.874146 743.857483,696.905640 744.123352,695.111877 
	C738.906067,690.291382 730.834229,690.170471 724.042969,694.998657 
	C717.666870,699.531677 713.165222,705.514526 712.509644,713.472290 
	C712.061707,718.908264 708.390442,717.090820 705.620972,717.242920 
	C701.876343,717.448669 701.951965,714.701965 702.089539,712.082031 
	C702.971497,695.284668 721.272949,676.901855 740.958130,680.702637 
M746.004272,729.687317 
	C757.512146,721.614380 760.079712,709.653015 751.432739,701.215515 
	C743.468933,710.182739 735.529419,719.122620 727.204224,728.496765 
	C733.593933,732.480835 739.347168,732.630432 746.004272,729.687317 
z"/>
<path fill="#000000" opacity="1.000000" stroke="none" 
	d="
M592.080811,209.335739 
	C592.906860,213.856308 593.154602,217.930359 592.356689,222.116974 
	C591.712830,225.494858 590.275879,226.465836 586.857361,225.856812 
	C573.290405,223.439804 559.681030,221.260605 546.084045,219.013596 
	C545.450623,218.908920 544.784912,219.000137 543.831909,219.000137 
	C542.652954,223.727188 544.832581,227.420197 547.585449,230.729828 
	C554.005615,238.448532 566.244507,241.111710 575.294434,236.162857 
	C579.936523,233.624420 581.314514,235.799667 583.216675,239.171402 
	C585.493713,243.207718 582.688293,244.553177 580.002747,245.993454 
	C567.447876,252.726700 547.778015,248.740280 538.376587,237.602371 
	C529.463989,227.043594 529.209900,209.208130 538.078674,197.665253 
	C545.607727,187.866089 555.824707,184.636292 567.762207,186.737534 
	C580.471619,188.974640 588.646240,196.365372 592.080811,209.335739 
M573.892944,214.422424 
	C576.293701,214.508224 578.663208,215.506012 581.113892,214.955109 
	C580.379578,203.518234 573.461304,196.592712 562.805420,196.359451 
	C554.114563,196.169205 546.786621,201.610382 545.738037,209.544296 
	C554.832153,211.094391 563.955872,212.649506 573.892944,214.422424 
z"/>
<path fill="#000000" opacity="1.000000" stroke="none" 
	d="
M372.360840,260.691406 
	C375.159119,264.864960 377.712250,268.771423 380.380951,272.597229 
	C381.840240,274.689240 383.130768,276.846802 380.015198,278.320404 
	C377.343933,279.583893 375.148712,284.593750 371.326080,279.908752 
	C371.035187,279.552277 370.576569,279.332611 369.855591,278.796112 
	C366.297089,288.650513 359.267365,294.864563 349.758881,298.279907 
	C339.857605,301.836334 330.772827,297.763306 326.818359,288.085693 
	C323.958160,281.086060 326.141418,275.055420 330.908325,269.695892 
	C335.405945,264.639099 341.418884,261.561523 346.734253,257.569611 
	C348.646912,256.133209 352.677002,255.725067 351.636566,252.279297 
	C350.648041,249.005432 347.591125,247.049927 344.125183,246.338852 
	C340.030396,245.498718 336.216553,246.337891 332.619324,248.490738 
	C327.145630,251.766632 323.117035,256.323395 320.514313,262.090118 
	C319.284088,264.815918 317.761444,265.634399 315.119202,263.934845 
	C312.752228,262.412292 308.857971,261.856628 310.972504,257.557678 
	C317.336060,244.620010 327.398224,236.065292 341.774109,233.970978 
	C349.177429,232.892456 355.377625,236.917236 359.855957,242.775589 
	C364.202179,248.461075 368.080261,254.504456 372.360840,260.691406 
M358.121826,281.586212 
	C363.592072,274.322845 364.037445,268.859131 359.636047,263.587036 
	C358.754883,262.531586 357.818390,261.220795 356.387726,262.226501 
	C350.320770,266.491455 343.271515,269.531616 338.641663,275.610199 
	C336.436554,278.505341 336.517578,281.902374 338.729858,284.882965 
	C340.879211,287.778656 343.763947,288.942383 347.462250,288.044434 
	C351.478943,287.069183 354.737335,284.935669 358.121826,281.586212 
z"/>
<path fill="#000000" opacity="1.000000" stroke="none" 
	d="
M253.002899,602.800171 
	C243.211334,614.597107 228.546082,612.498962 222.275528,598.713562 
	C219.433029,592.464478 218.205688,585.715881 216.417206,579.141357 
	C215.024048,574.020081 213.818619,573.556152 209.201538,576.215515 
	C203.716461,579.374817 201.799332,585.201233 203.809555,592.858398 
	C205.277695,598.450623 207.963303,603.438416 212.166107,607.401001 
	C214.965759,610.040588 213.399658,611.663879 211.426712,613.481995 
	C209.517212,615.241760 207.854965,617.907043 204.881409,614.883789 
	C195.745544,605.595215 191.094635,594.465576 192.218643,581.459778 
	C193.024109,572.139771 199.049622,566.275146 207.651810,563.725220 
	C219.447662,560.228577 231.479126,557.531738 243.382797,554.390564 
	C246.621109,553.536072 247.796356,555.346802 248.081650,557.883423 
	C248.369476,560.442566 251.450958,563.712341 246.694489,565.405334 
	C245.968842,565.663635 245.282700,566.032959 244.470230,566.399719 
	C256.192932,577.702087 259.219513,590.462646 253.002899,602.800171 
M235.188843,571.083313 
	C232.251556,569.710266 229.375198,570.295593 226.458755,571.239868 
	C224.924866,571.736572 224.092209,572.669617 224.519211,574.174316 
	C226.373352,580.708252 227.203934,587.564636 230.267593,593.714966 
	C231.949188,597.090820 234.754593,599.231934 238.746857,598.405823 
	C242.904465,597.545471 245.639343,594.932373 245.774673,590.506409 
	C246.023712,582.362061 243.792984,575.369751 235.188843,571.083313 
z"/>
<path fill="#000000" opacity="1.000000" stroke="none" 
	d="
M753.213867,390.482849 
	C752.106873,387.531525 753.695312,386.520752 755.722351,385.681702 
	C778.014771,376.454498 800.308655,367.230713 822.573364,357.937042 
	C825.215576,356.834137 826.818054,357.093384 827.996460,359.989197 
	C834.205383,375.246582 840.490540,390.473602 846.871277,405.659851 
	C848.317810,409.102631 846.880554,410.463562 843.840576,411.464172 
	C841.043701,412.384796 838.398865,414.441254 836.612488,409.924072 
	C832.268188,398.938843 827.585327,388.087036 823.278870,377.087524 
	C821.833679,373.396210 820.274170,372.138428 816.345215,374.118988 
	C811.754333,376.433167 806.919739,378.376373 802.015320,379.924286 
	C797.193787,381.446014 796.835571,383.826324 798.734558,388.092468 
	C802.657471,396.905121 805.890076,406.027649 809.890442,414.802155 
	C811.927246,419.269836 809.516907,420.115570 806.321167,421.518402 
	C802.938477,423.003326 801.031921,422.935913 799.548767,418.960449 
	C796.060120,409.609589 792.042786,400.457367 788.383301,391.168091 
	C786.998779,387.653625 785.200745,386.696747 781.552368,388.382080 
	C775.213318,391.310394 768.550537,393.544556 762.244690,396.535950 
	C757.911499,398.591583 755.405640,397.980225 754.285278,393.168945 
	C754.098816,392.368042 753.679932,391.621216 753.213867,390.482849 
z"/>
<path fill="#000000" opacity="1.000000" stroke="none" 
	d="
M486.791626,831.684692 
	C485.508118,840.000793 484.358398,847.896179 483.146149,855.781982 
	C482.704712,858.653320 481.802917,860.759521 478.007111,860.119629 
	C462.270508,857.466614 446.505615,854.978455 430.737061,852.519836 
	C427.573364,852.026550 425.284668,851.408081 426.226654,847.249023 
	C427.016876,843.760071 426.841614,840.487793 432.326813,841.531372 
	C443.743164,843.703308 455.318573,845.032227 466.750977,847.130615 
	C470.615021,847.839966 471.829346,846.538025 472.343323,843.141907 
	C473.261932,837.072021 474.258667,831.010437 475.397278,824.978394 
	C476.219482,820.622803 472.841583,820.904114 470.470093,820.508057 
	C461.282471,818.973694 452.057983,817.659729 442.846832,816.266418 
	C436.760834,815.345825 434.878387,811.445679 437.976593,806.184814 
	C439.259888,804.005737 441.127380,804.992126 442.861481,805.264160 
	C454.163300,807.037292 465.464478,808.814270 477.119385,810.645508 
	C479.632416,802.216248 480.163483,793.916870 481.592407,785.803955 
	C482.742645,779.273376 486.697479,777.338623 492.666382,780.701172 
	C495.292053,782.180298 494.324890,784.485474 494.020264,786.459717 
	C491.714691,801.403625 489.288940,816.329041 486.791626,831.684692 
z"/>
<path fill="#000000" opacity="1.000000" stroke="none" 
	d="
M789.202026,488.216583 
	C800.215820,478.088654 815.509460,476.088013 827.848450,482.935211 
	C838.392639,488.786407 845.109924,503.087006 843.064758,515.329468 
	C840.477661,530.816040 831.055298,540.387390 816.105652,542.714600 
	C797.912964,545.546631 781.098267,531.219055 780.600769,512.802368 
	C780.350281,503.530151 782.677124,495.385956 789.202026,488.216583 
M807.230164,491.450165 
	C797.289307,494.381226 791.790894,500.623077 791.344116,509.484161 
	C790.887939,518.530090 795.226746,525.672241 803.160645,528.935852 
	C814.460266,533.583923 827.305298,528.690063 831.130005,518.279724 
	C835.293091,506.948364 829.716064,495.383392 818.462463,491.956207 
	C815.040344,490.914062 811.562012,491.203217 807.230164,491.450165 
z"/>
<path fill="#000000" opacity="1.000000" stroke="none" 
	d="
M604.268066,255.222321 
	C600.584961,261.252350 597.538940,255.625671 594.454956,254.911850 
	C591.315979,254.185272 592.742188,251.606644 593.596375,249.603516 
	C600.129517,234.282684 606.664490,218.962631 613.175293,203.632309 
	C615.837341,197.364380 615.816650,197.339920 622.119263,200.153778 
	C623.316406,200.688278 624.446350,201.373291 625.408630,201.883545 
	C626.393005,204.080307 624.537903,205.625198 624.947632,208.318756 
	C631.077942,206.550949 637.185303,206.613495 643.309875,208.672531 
	C659.289490,214.044739 665.804016,226.068085 660.164856,241.807510 
	C656.294983,252.608765 651.349060,263.023071 646.941345,273.634064 
	C645.847229,276.268005 644.267822,276.441559 641.786011,275.471222 
	C634.296509,272.542847 634.241821,272.556122 637.327087,265.295410 
	C640.844116,257.018372 644.515564,248.800995 647.793518,240.429901 
	C651.698608,230.457184 649.180603,223.256668 640.859985,219.395950 
	C630.866882,214.759171 621.775208,217.150085 616.990479,226.578125 
	C612.325684,235.769745 608.563843,245.419632 604.268066,255.222321 
z"/>
<path fill="#000000" opacity="1.000000" stroke="none" 
	d="
M679.537720,791.525146 
	C671.878357,790.904846 666.729370,786.702698 662.726685,781.208862 
	C656.063843,772.063782 649.920593,762.541504 643.322388,753.347473 
	C640.540710,749.471497 643.204163,748.134216 645.748474,746.419373 
	C648.399292,744.632629 650.722595,742.432922 653.472900,746.693542 
	C658.525757,754.521423 663.983093,762.088135 669.274292,769.762085 
	C676.484192,780.218811 683.684387,782.158020 692.722961,776.080505 
	C702.006165,769.838623 703.902527,760.111572 697.508118,750.431396 
	C692.371094,742.654785 687.155762,734.919312 681.666321,727.390747 
	C679.030701,723.776001 680.692749,722.129333 683.650940,720.397217 
	C686.381287,718.798523 688.582275,715.796265 691.703247,720.487122 
	C701.291199,734.898193 711.229492,749.077271 721.129150,763.278564 
	C722.891968,765.807434 723.973816,767.924500 720.432861,769.665710 
	C717.597839,771.059692 714.949158,775.880493 711.620544,770.246338 
	C711.379456,769.838257 710.933533,769.543518 710.555054,769.229553 
	C710.456787,769.148071 710.253540,769.193176 710.025513,769.174072 
	C704.579773,782.750183 695.471619,791.490662 679.537720,791.525146 
z"/>
<path fill="#000000" opacity="1.000000" stroke="none" 
	d="
M376.297943,792.209412 
	C374.327393,796.845093 372.372070,801.077820 370.672058,805.410767 
	C369.618744,808.095520 368.341888,808.969727 365.398956,807.812256 
	C357.741760,804.800720 357.669586,804.916382 360.905396,797.281067 
	C367.006287,782.885498 373.076050,768.476013 379.314606,754.140137 
	C380.334290,751.796936 380.050110,747.568970 384.967743,749.183594 
	C391.389343,751.291870 392.112183,752.167480 390.847656,758.169495 
	C393.234741,758.888000 395.324341,757.488953 397.515167,757.190125 
	C410.614746,755.403564 425.583099,766.199158 427.875641,779.162354 
	C428.689728,783.765625 427.579193,788.156738 425.909515,792.318359 
	C421.760925,802.658813 417.230774,812.846497 413.101776,823.194458 
	C411.547028,827.090820 409.223572,826.671143 406.452850,825.132996 
	C403.879822,823.704590 399.424164,823.764343 401.774017,818.479065 
	C405.962433,809.058472 410.043365,799.573181 413.696716,789.935791 
	C418.539276,777.161377 410.050964,766.295654 396.338257,767.400330 
	C389.673584,767.937195 385.439270,772.115234 382.589081,777.671753 
	C380.241638,782.247986 378.455750,787.112183 376.297943,792.209412 
z"/>
<path fill="#000000" opacity="1.000000" stroke="none" 
	d="
M807.989990,600.892151 
	C816.991821,600.474304 820.795654,597.417053 822.923584,589.258240 
	C825.119873,580.837097 822.604675,573.632080 816.032898,569.621399 
	C811.247803,566.701172 805.790161,565.746582 800.468323,564.440491 
	C794.162842,562.892944 787.812317,561.529663 781.503540,559.995239 
	C775.981323,558.652100 779.045471,554.944641 779.412292,552.003235 
	C779.806458,548.842224 780.968323,547.305420 784.700439,548.239868 
	C801.007751,552.322937 817.375671,556.165100 833.732178,560.050171 
	C837.238831,560.883057 840.689331,561.265930 839.278198,566.591675 
	C837.635071,572.792786 837.788147,572.946350 830.914490,571.919617 
	C833.972900,578.749695 835.061279,585.597168 833.452209,592.838501 
	C829.980652,608.461426 818.368469,616.222961 802.684753,612.796326 
	C792.127808,610.489807 781.700928,607.592957 771.165161,605.181396 
	C767.261353,604.287781 766.934875,602.016296 768.033997,598.970459 
	C769.046265,596.165222 768.419617,592.000061 773.994995,593.264160 
	C785.179138,595.799988 796.091797,599.555298 807.989990,600.892151 
z"/>
<path fill="#000000" opacity="1.000000" stroke="none" 
	d="
M228.037689,496.006470 
	C230.294052,490.862732 232.893768,491.824463 236.141739,494.687439 
	C244.566360,502.113495 247.961578,515.870483 244.084854,527.832947 
	C240.185074,539.866638 229.840775,548.239380 217.817749,549.297058 
	C188.861237,551.844482 177.019409,523.595642 185.409943,504.159821 
	C186.452927,501.743866 187.780258,499.297485 189.542160,497.387665 
	C191.346420,495.432007 193.124374,491.723389 196.681351,494.164215 
	C200.944489,497.089569 201.160263,501.090118 198.085983,504.784485 
	C192.734985,511.214874 192.443207,518.483459 195.418137,525.895020 
	C198.222900,532.882690 203.725677,536.494751 211.245865,536.961975 
	C228.115158,538.010010 238.513199,525.726990 233.669128,510.529999 
	C232.780457,507.742065 231.305237,505.303772 229.050522,503.552765 
	C226.266617,501.390747 225.807495,499.135315 228.037689,496.006470 
z"/>
<path fill="#000000" opacity="1.000000" stroke="none" 
	d="
M377.376587,248.409973 
	C371.398041,236.260300 371.493896,224.595123 380.146240,214.421188 
	C388.910431,204.115631 400.330627,199.415359 414.080292,202.750565 
	C417.116180,203.487000 420.021271,204.797562 422.012787,207.126846 
	C421.896912,209.317581 420.405090,210.372116 419.664520,211.827530 
	C417.990936,215.116501 415.874908,215.486893 412.345612,214.118942 
	C401.206451,209.801361 389.063721,216.219284 385.985535,227.644745 
	C383.369568,237.354691 389.551849,249.220642 399.130859,252.875092 
	C408.408386,256.414520 419.648529,251.592972 424.233368,242.107117 
	C425.935120,238.586197 429.534393,237.634674 433.778809,239.950348 
	C436.932007,241.670670 435.232422,244.361191 434.324951,246.484024 
	C429.158630,258.569702 418.926117,263.807648 406.752075,264.936737 
	C393.759186,266.141785 384.018646,260.040802 377.376587,248.409973 
z"/>
<path fill="#000000" opacity="1.000000" stroke="none" 
	d="
M769.622131,621.275269 
	C780.318726,623.375305 788.944824,629.412292 798.496338,633.227661 
	C800.192993,633.905457 801.870544,634.675659 803.453857,635.582947 
	C806.337891,637.235718 808.098083,636.356750 809.191467,633.390625 
	C810.417603,630.064209 811.806030,627.980835 816.128662,630.171692 
	C819.969299,632.118225 820.557129,634.120972 818.444153,637.489624 
	C816.443176,640.679749 817.344482,642.764832 820.883789,643.851379 
	C821.354370,643.995850 821.776489,644.294861 822.225830,644.512329 
	C827.785095,647.202515 828.460693,652.564331 823.783386,656.650146 
	C822.731323,657.569153 821.656006,657.436707 820.540466,656.950439 
	C818.710022,656.152710 816.829773,655.432129 815.098083,654.453308 
	C812.170410,652.798523 810.534302,653.827576 809.321045,656.675049 
	C808.148560,659.426819 806.558411,662.004517 805.444153,664.776306 
	C803.915833,668.578369 801.616577,667.397278 799.031860,666.191711 
	C796.271301,664.904175 794.525513,663.527222 796.373535,660.122681 
	C798.194092,656.768677 799.633972,653.207153 801.208435,649.722046 
	C801.326416,649.460693 801.183716,649.081543 801.120667,648.130981 
	C791.099548,643.290955 781.118958,637.616516 770.265808,633.873596 
	C765.106567,632.094360 760.398926,635.906189 759.582825,642.681274 
	C759.115601,646.560364 758.231018,648.400269 753.921997,647.996033 
	C749.092407,647.543091 749.565857,644.319153 749.683655,641.152771 
	C750.098145,630.018494 758.282837,621.685181 769.622131,621.275269 
z"/>
<path fill="#000000" opacity="1.000000" stroke="none" 
	d="
M213.102966,649.180908 
	C211.460403,645.540833 210.061508,642.141846 208.345825,638.911133 
	C206.560760,635.549683 208.211777,634.125977 211.039597,632.844177 
	C213.667542,631.652954 216.005386,630.496643 217.424545,634.333801 
	C218.057419,636.044922 218.991455,637.643066 219.760925,639.305420 
	C223.103912,646.528015 223.112106,646.555237 230.134964,643.275085 
	C237.377945,639.892151 244.647934,636.560425 251.808273,633.009033 
	C259.390259,629.248413 260.561310,623.501343 254.650330,617.516846 
	C251.762894,614.593445 251.519485,612.781921 254.468918,609.829285 
	C257.610229,606.684570 259.696014,608.348206 262.038055,610.519287 
	C273.612549,621.248657 271.613525,636.876343 257.596252,643.808960 
	C249.389297,647.868042 241.011307,651.593140 232.618896,655.259460 
	C229.404587,656.663635 228.257706,658.124390 230.024902,661.644714 
	C232.433853,666.443359 230.582291,669.238342 225.233505,669.975525 
	C222.948700,670.290466 222.179352,668.786316 221.732178,667.213989 
	C220.241501,661.972717 217.443253,662.121582 213.190582,664.327148 
	C207.230270,667.418213 207.330109,667.028503 204.355957,661.436157 
	C202.306107,657.581604 202.834793,655.477295 206.947449,653.803223 
	C209.242706,652.869019 212.249542,652.541077 213.102966,649.180908 
z"/>
<path fill="#000000" opacity="1.000000" stroke="none" 
	d="
M358.288269,738.420410 
	C361.795807,733.630249 362.077637,733.822449 368.512939,738.013123 
	C372.507935,740.614685 370.029999,742.596558 368.543274,744.879883 
	C354.929474,765.787903 341.259766,786.660034 327.762939,807.643250 
	C325.714264,810.828247 323.964081,811.861511 320.707733,809.336670 
	C317.866028,807.133301 314.186676,805.989746 317.495209,801.000488 
	C331.191437,780.346252 344.584747,759.491211 358.288269,738.420410 
z"/>
<path fill="#000000" opacity="1.000000" stroke="none" 
	d="
M303.479980,780.452576 
	C301.780212,782.535156 300.385742,784.412842 298.819244,786.133972 
	C297.550781,787.527649 296.811798,790.446533 294.523529,789.616943 
	C291.436462,788.497864 288.681610,786.319519 286.931305,783.416443 
	C285.978668,781.836426 287.739532,780.720520 288.639465,779.609192 
	C304.671722,759.811890 320.825623,740.111694 336.699921,720.188721 
	C340.495239,715.425476 342.498871,719.380554 345.183319,721.016235 
	C348.256744,722.888977 348.635223,724.839966 346.195831,727.817444 
	C331.951416,745.203857 317.856445,762.712646 303.479980,780.452576 
z"/>
<path fill="#000000" opacity="1.000000" stroke="none" 
	d="
M830.525513,468.653442 
	C829.668762,467.446442 829.028870,466.458405 828.694031,465.375977 
	C825.536560,455.171112 820.204407,451.260162 809.493103,451.980438 
	C800.347351,452.595459 791.495178,455.118256 782.517395,456.813110 
	C776.517395,457.945770 772.424377,453.784607 773.990356,447.952454 
	C774.416992,446.363556 775.700500,446.035217 777.006348,445.768616 
	C794.742615,442.147675 812.484863,438.555298 830.219788,434.927612 
	C833.913086,434.172150 834.508118,436.814209 834.774597,439.303070 
	C835.035828,441.743103 837.477173,444.966034 833.019897,446.312836 
	C831.797791,446.682068 830.597412,447.123169 828.764832,447.741150 
	C833.801147,451.075287 836.941406,455.251312 838.956482,460.266296 
	C841.348145,466.218506 840.743469,467.285889 834.320312,468.476685 
	C833.191833,468.685883 832.030151,468.715881 830.525513,468.653442 
z"/>
<path fill="#000000" opacity="1.000000" stroke="none" 
	d="
M741.233276,345.081146 
	C739.978882,351.555817 736.078857,354.503998 730.836548,353.351593 
	C726.454285,352.388214 723.695251,347.805542 725.021240,343.377594 
	C726.209656,339.409149 729.198547,337.197693 733.181519,337.290619 
	C737.694824,337.395996 740.450562,340.134430 741.233276,345.081146 
z"/>
<path fill="#000000" opacity="1.000000" stroke="none" 
	d="
M260.969910,401.262115 
	C256.544891,399.015259 254.822342,395.643219 256.091522,391.264435 
	C257.164185,387.563629 259.894165,385.494049 263.916412,385.717926 
	C267.988068,385.944489 270.772644,388.023438 271.876434,391.994598 
	C273.566742,398.076019 268.411011,402.629364 260.969910,401.262115 
z"/>
<path fill="#000000" opacity="1.000000" stroke="none" 
	d="
M531.622986,780.409180 
	C537.008545,778.032288 540.908081,778.979980 543.148193,782.898071 
	C545.389771,786.818726 544.475464,791.531982 540.740784,793.948792 
	C537.288147,796.183228 533.736267,796.105774 530.714844,793.110962 
	C527.262878,789.689453 527.562317,785.223206 531.622986,780.409180 
z"/>
</svg>