<?xml version="1.0" standalone="no"?>
<!DOCTYPE svg PUBLIC "-//W3C//DTD SVG 20010904//EN"
 "http://www.w3.org/TR/2001/REC-SVG-20010904/DTD/svg10.dtd">
<svg version="1.0" xmlns="http://www.w3.org/2000/svg"
 width="1080.000000pt" height="1080.000000pt" viewBox="0 0 1080.000000 1080.000000"
 preserveAspectRatio="xMidYMid meet">
<metadata>
Created by potrace 1.16, written by Peter Selinger 2001-2019
</metadata>
<g transform="translate(0.000000,1080.000000) scale(0.100000,-0.100000)"
fill="#000000" stroke="none">
<path d="M4603 9107 c-42 -7 -53 -12 -53 -27 0 -19 126 -796 135 -839 6 -22 9
-23 53 -16 26 4 51 10 55 14 4 5 2 44 -6 88 l-14 81 49 63 c27 35 53 67 57 71
3 4 69 -49 146 -118 l140 -125 60 6 c33 4 63 10 68 14 4 4 -68 76 -160 161
-93 84 -169 156 -170 159 -2 3 44 70 102 149 58 78 105 145 105 148 0 6 -32 2
-102 -12 -21 -4 -61 -48 -170 -186 -114 -144 -144 -176 -149 -161 -4 10 -24
122 -44 248 -20 127 -39 244 -43 260 l-7 31 -52 -9z"/>
<path d="M5855 8894 c-103 -26 -172 -81 -216 -170 -83 -169 -24 -362 134 -437
109 -51 224 -58 312 -17 70 33 70 33 44 79 -12 23 -25 40 -28 38 -153 -88
-345 -26 -381 122 -7 29 -11 54 -9 56 3 2 115 -15 252 -38 174 -29 250 -38
257 -31 6 6 11 46 11 88 0 129 -55 222 -164 276 -61 30 -163 46 -212 34z m162
-118 c56 -27 99 -85 110 -150 5 -32 3 -36 -17 -36 -20 0 -282 42 -352 56 -36
7 -35 21 3 73 57 80 159 102 256 57z"/>
<path d="M6368 8492 c-65 -152 -120 -284 -123 -292 -3 -11 8 -20 38 -32 23
-10 47 -18 54 -18 6 0 43 76 83 168 77 182 111 231 177 253 69 23 183 -15 225
-74 42 -59 32 -116 -56 -320 -43 -99 -76 -180 -74 -182 6 -7 101 -46 103 -43
12 17 157 375 166 410 37 151 -84 293 -261 306 -39 2 -82 0 -101 -7 -18 -6
-34 -9 -36 -7 -2 2 3 20 11 40 l15 36 -46 20 c-25 11 -48 20 -52 20 -3 0 -59
-125 -123 -278z"/>
<path d="M4171 8715 c-24 -8 -68 -30 -97 -50 -130 -90 -175 -249 -109 -393 36
-79 113 -153 186 -177 75 -25 186 -17 261 20 63 30 132 97 154 150 22 54 19
62 -33 72 l-48 8 -25 -49 c-44 -88 -162 -137 -254 -106 -147 48 -205 259 -103
368 55 59 163 86 231 58 21 -9 42 -16 46 -16 12 0 59 73 53 83 -3 5 -24 18
-47 28 -49 22 -150 24 -215 4z"/>
<path d="M3518 8375 c-85 -31 -203 -139 -238 -217 -10 -24 -18 -43 -17 -44 1
-1 21 -11 44 -23 l42 -21 19 43 c24 52 91 120 146 147 75 36 135 22 185 -42
l21 -27 -105 -71 c-109 -75 -149 -113 -172 -167 -28 -68 -5 -156 53 -202 36
-28 99 -44 143 -36 98 18 210 110 234 191 l14 47 22 -32 22 -31 44 31 44 32
-115 171 c-64 94 -128 183 -142 199 -58 62 -159 83 -244 52z m276 -295 c15
-23 26 -54 26 -73 0 -86 -100 -187 -185 -187 -83 0 -125 88 -72 152 16 20 192
148 203 148 1 0 13 -18 28 -40z"/>
<path d="M7200 8301 c-82 -26 -165 -105 -207 -196 -71 -154 -6 -328 153 -406
52 -26 77 -32 124 -32 64 1 64 2 24 -53 -14 -21 -13 -23 28 -53 23 -17 45 -28
49 -24 5 5 127 163 273 352 l264 345 -41 33 c-23 18 -45 33 -48 33 -3 0 -53
-61 -110 -136 l-104 -137 -7 43 c-14 83 -80 165 -171 212 -45 23 -180 35 -227
19z m219 -134 c22 -15 53 -46 68 -69 24 -35 28 -52 28 -108 0 -57 -5 -74 -30
-116 -45 -72 -101 -107 -179 -112 -49 -3 -71 0 -102 16 -77 40 -124 111 -124
189 0 89 61 182 145 220 49 22 145 12 194 -20z"/>
<path d="M2847 8056 c-61 -23 -112 -63 -194 -155 -43 -47 -110 -122 -150 -167
l-73 -81 310 -274 c171 -151 314 -275 318 -277 9 -3 265 284 316 356 60 82 82
179 57 245 -15 38 -70 96 -113 118 -47 24 -120 27 -169 6 l-35 -14 0 51 c0
134 -144 238 -267 192z m114 -129 c22 -14 39 -38 48 -64 22 -62 -1 -110 -121
-248 -88 -101 -103 -114 -117 -102 -59 49 -181 161 -181 166 0 3 45 57 101
119 135 152 194 180 270 129z m306 -213 c31 -20 63 -73 63 -104 -1 -48 -39
-108 -150 -234 l-112 -127 -56 50 c-31 27 -79 69 -105 93 l-49 43 105 117 c57
65 115 127 130 138 63 50 123 58 174 24z"/>
<path d="M7665 7275 c-16 -15 -25 -36 -25 -55 0 -36 38 -80 70 -80 47 0 89 38
90 81 1 71 -85 105 -135 54z"/>
<path d="M8315 6939 c-314 -130 -380 -160 -378 -176 4 -35 34 -95 46 -90 7 3
76 31 155 63 120 49 144 56 152 44 5 -8 41 -94 81 -190 39 -96 73 -177 74
-179 4 -4 95 30 95 35 0 2 -27 70 -61 151 -34 82 -69 169 -79 194 l-18 46 126
51 c70 29 132 52 137 52 6 0 50 -96 99 -214 l88 -215 47 19 c27 11 45 24 43
32 -6 25 -214 523 -220 529 -4 3 -178 -65 -387 -152z"/>
<path d="M2715 6765 c-27 -26 -31 -54 -13 -88 28 -53 89 -63 128 -22 71 75
-42 184 -115 110z"/>
<path d="M2041 6371 l-12 -60 121 -196 c67 -109 120 -198 118 -200 -2 -2 -115
19 -253 45 -137 26 -261 50 -275 52 -22 3 -25 -2 -36 -50 -9 -40 -9 -54 -1
-58 11 -4 145 -30 701 -135 87 -17 160 -28 162 -26 6 6 23 102 18 106 -2 2
-40 11 -86 20 l-82 16 -44 74 c-39 64 -43 75 -30 85 8 6 83 47 166 91 l150 80
11 54 c6 30 11 61 11 68 0 9 -74 -24 -205 -92 -113 -58 -209 -104 -213 -101
-5 3 -50 68 -102 146 -51 77 -96 140 -100 140 -4 0 -13 -27 -19 -59z"/>
<path d="M8462 6216 l-304 -61 7 -50 c3 -27 9 -53 13 -57 4 -3 89 10 189 30
165 33 187 35 229 24 25 -7 57 -20 70 -30 26 -19 74 -105 74 -135 0 -13 5 -17
18 -13 9 3 34 8 55 12 35 6 38 9 32 33 -18 74 -62 135 -118 164 l-29 15 34 7
c61 12 69 16 64 33 -2 9 -7 34 -11 55 -3 20 -9 36 -13 36 -4 -1 -144 -29 -310
-63z"/>
<path d="M8457 5796 c-147 -41 -235 -177 -225 -345 8 -123 72 -221 178 -274
37 -18 62 -22 145 -22 110 0 148 13 220 77 130 114 134 355 7 483 -76 77 -216
112 -325 81z m226 -142 c147 -104 112 -330 -59 -380 -64 -18 -128 -13 -184 16
-154 79 -145 305 15 382 62 29 172 21 228 -18z"/>
<path d="M2401 5630 l-23 -41 37 -40 c45 -50 55 -76 55 -142 -1 -166 -170
-266 -327 -193 -80 38 -133 140 -117 228 8 39 48 114 69 125 12 7 9 16 -13 51
-15 23 -30 42 -35 42 -4 0 -25 -18 -46 -41 -112 -114 -99 -345 26 -460 66 -61
122 -82 219 -83 74 -1 87 2 150 34 114 58 174 160 174 295 0 94 -23 158 -79
216 -26 27 -52 49 -57 49 -6 0 -21 -18 -33 -40z"/>
<path d="M8217 5048 c-4 -18 -9 -43 -12 -54 -6 -20 3 -24 167 -64 217 -53 258
-73 294 -142 21 -41 18 -130 -7 -183 -46 -98 -110 -105 -369 -41 l-175 44 -12
-36 c-25 -79 -34 -73 189 -126 228 -55 296 -58 363 -16 109 67 157 245 101
367 l-24 51 31 -9 c49 -14 55 -12 66 29 19 65 17 67 -61 85 -40 9 -175 41
-300 72 -125 30 -232 55 -236 55 -5 0 -12 -15 -15 -32z"/>
<path d="M2377 4964 c-279 -71 -324 -99 -349 -218 -22 -102 35 -277 114 -354
l34 -32 33 34 34 35 -33 38 c-74 84 -106 217 -66 277 20 32 73 66 102 66 17 0
23 -13 43 -97 29 -121 65 -207 102 -238 111 -93 270 -28 292 119 14 88 -39
230 -99 269 -19 12 -34 25 -34 28 0 4 14 9 31 13 31 6 31 7 25 48 -4 22 -10
46 -14 53 -5 9 -61 -2 -215 -41z m96 -118 c90 -37 144 -174 102 -256 -21 -41
-84 -60 -119 -36 -39 25 -53 52 -81 156 -33 124 -33 126 13 138 51 14 49 14
85 -2z"/>
<path d="M2671 4420 l-22 -31 30 -35 c38 -43 47 -76 30 -116 -11 -27 -33 -41
-154 -99 -78 -37 -159 -75 -179 -83 l-37 -16 -36 78 c-19 42 -37 79 -39 81 -4
5 -84 -30 -84 -36 0 -2 16 -38 35 -80 19 -42 35 -77 35 -79 0 -2 -27 -17 -60
-34 -33 -17 -60 -33 -60 -36 0 -5 40 -86 46 -93 1 -1 28 9 60 23 31 14 60 26
64 26 5 0 16 -20 26 -45 9 -25 21 -45 26 -45 8 0 67 28 76 35 2 2 -6 25 -17
51 -12 26 -20 48 -19 49 2 2 83 40 181 85 192 89 227 117 247 190 17 64 -11
150 -70 209 -39 39 -51 39 -79 1z"/>
<path d="M8020 4292 c-69 -38 -120 -128 -120 -214 l0 -38 45 0 c41 0 45 2 45
25 0 65 49 125 101 125 32 0 359 -151 359 -165 0 -6 -16 -43 -35 -84 -19 -40
-35 -74 -35 -75 0 -6 80 -39 84 -35 2 2 21 39 42 81 l39 78 53 -25 c30 -14 59
-25 66 -25 7 0 21 22 32 48 l21 49 -63 27 -62 27 19 42 c10 23 19 47 19 53 0
9 -60 44 -76 44 -3 0 -14 -20 -25 -45 -11 -25 -23 -45 -27 -45 -4 0 -85 37
-180 81 -194 92 -243 103 -302 71z"/>
<path d="M2749 3947 c-24 -13 -57 -43 -74 -66 -27 -38 -30 -50 -29 -114 1 -62
8 -91 52 -204 61 -156 66 -205 26 -252 -35 -42 -81 -49 -139 -21 -25 12 -59
38 -75 58 -45 54 -89 147 -96 203 -4 27 -10 51 -14 54 -9 5 -82 -14 -93 -25
-5 -4 -2 -36 7 -70 45 -175 186 -330 317 -347 90 -12 192 48 225 132 24 65 15
126 -45 288 -62 166 -65 206 -20 248 56 52 132 37 201 -39 71 -79 118 -190
118 -279 l0 -44 48 7 c26 3 49 8 52 11 11 10 -2 109 -21 166 -42 126 -135 245
-230 292 -65 34 -149 34 -210 2z"/>
<path d="M7613 3650 c-116 -58 -205 -183 -207 -290 l-1 -55 48 -3 47 -3 0 38
c1 79 67 175 146 213 54 27 125 29 177 7 l39 -17 -171 -190 c-94 -105 -171
-195 -171 -200 0 -17 93 -79 144 -96 71 -24 180 -15 238 19 58 34 125 107 151
165 49 111 17 254 -77 346 -68 66 -125 90 -221 94 -73 3 -85 1 -142 -28z m335
-209 c16 -28 22 -56 22 -99 0 -51 -5 -67 -32 -108 -40 -58 -103 -94 -164 -94
-45 0 -127 27 -122 40 5 11 262 299 269 300 3 0 15 -17 27 -39z"/>
<path d="M3288 2947 l-276 -342 36 -32 c21 -18 42 -32 49 -33 6 0 136 154 288
342 l277 341 -39 33 c-21 18 -42 33 -48 33 -5 0 -134 -154 -287 -342z"/>
<path d="M7203 3262 l-43 -28 96 -140 c113 -164 133 -204 134 -263 0 -90 -84
-180 -179 -189 -87 -8 -110 13 -266 243 -49 72 -89 132 -91 134 -3 3 -94 -60
-94 -66 0 -3 86 -129 181 -263 109 -155 192 -196 316 -154 98 33 180 114 206
205 l13 44 19 -32 c24 -40 40 -41 84 -4 l34 28 -175 253 c-96 140 -178 255
-184 257 -5 2 -28 -10 -51 -25z"/>
<path d="M3568 2757 c-129 -199 -238 -367 -241 -373 -9 -17 73 -69 90 -58 7 5
119 171 248 369 233 358 234 360 213 376 -12 9 -33 24 -48 32 l-26 16 -236
-362z"/>
<path d="M4014 2955 c-4 -8 -59 -140 -124 -293 l-118 -277 50 -23 c28 -12 53
-20 56 -17 2 2 36 77 74 167 79 186 103 223 166 250 123 55 278 -49 257 -173
-4 -22 -40 -119 -82 -215 -41 -97 -73 -178 -71 -179 6 -7 101 -46 103 -43 12
18 157 375 166 411 36 146 -89 292 -261 305 -46 3 -76 0 -103 -11 -41 -18 -45
-11 -21 34 8 17 14 32 12 34 -2 2 -25 13 -51 24 -41 18 -49 19 -53 6z"/>
<path d="M6423 2826 c-82 -26 -150 -84 -179 -151 l-12 -30 -17 43 c-15 38 -21
43 -41 38 -48 -12 -74 -26 -74 -38 1 -7 68 -195 150 -418 117 -319 152 -404
164 -402 9 2 34 11 55 20 l39 17 -53 142 c-76 202 -72 185 -33 165 22 -11 57
-17 103 -17 89 0 177 38 234 100 50 54 67 87 79 152 27 152 -70 331 -205 377
-55 19 -152 20 -210 2z m196 -124 c28 -17 54 -45 72 -78 57 -100 48 -200 -25
-269 -114 -110 -290 -74 -350 70 -39 93 -27 172 36 241 71 77 178 92 267 36z"/>
<path d="M5623 2643 c-56 -11 -73 -106 -27 -142 33 -26 64 -27 97 -1 49 38 43
106 -12 135 -17 8 -31 14 -33 14 -2 -1 -13 -4 -25 -6z"/>
<path d="M5058 2480 c-14 -89 -28 -163 -30 -166 -3 -2 -95 10 -206 28 -111 17
-204 29 -206 27 -2 -2 -7 -25 -11 -50 l-7 -46 206 -33 c148 -24 206 -37 206
-46 0 -20 -41 -268 -45 -272 -2 -2 -106 13 -231 32 -125 20 -229 35 -230 33
-2 -2 -8 -24 -13 -50 -8 -44 -7 -46 18 -51 39 -8 448 -74 508 -82 49 -6 52 -5
57 17 13 58 128 800 125 804 -2 1 -29 6 -60 10 l-55 7 -26 -162z"/>
</g>
</svg>
